<svg xmlns="http://www.w3.org/2000/svg" viewBox="0 0 400 260">
  <defs>
    <linearGradient id="bg" x1="0" y1="0" x2="0" y2="1">
      <stop offset="0" stop-color="#151936"/>
      <stop offset="1" stop-color="#0E1020"/>
    </linearGradient>
    <linearGradient id="pipe" x1="0" y1="0" x2="1" y2="0">
      <stop offset="0" stop-color="#4A56E2"/>
      <stop offset="1" stop-color="#3A44B8"/>
    </linearGradient>
  </defs>
  <rect width="400" height="260" fill="url(#bg)"/>
  <g fill="#8E93A3" opacity=".5">
    <circle cx="52" cy="38" r="1.6"/><circle cx="132" cy="72" r="1.2"/>
    <circle cx="210" cy="30" r="1.4"/><circle cx="330" cy="58" r="1.6"/>
    <circle cx="288" cy="120" r="1.1"/><circle cx="80" cy="150" r="1.3"/>
    <circle cx="370" cy="170" r="1.4"/><circle cx="30" cy="210" r="1.2"/>
  </g>
  <!-- borular -->
  <rect x="252" y="-6" width="52" height="88" rx="8" fill="url(#pipe)"/>
  <rect x="247" y="70" width="62" height="12" rx="5" fill="#5B67F5"/>
  <rect x="252" y="190" width="52" height="76" rx="8" fill="url(#pipe)"/>
  <rect x="247" y="178" width="62" height="12" rx="5" fill="#5B67F5"/>
  <rect x="86" y="-6" width="52" height="52" rx="8" fill="url(#pipe)" opacity=".55"/>
  <rect x="86" y="160" width="52" height="106" rx="8" fill="url(#pipe)" opacity=".55"/>
  <!-- zemin -->
  <rect x="0" y="242" width="400" height="18" fill="#0B0C16"/>
  <rect x="0" y="242" width="400" height="1.5" fill="#ffffff" opacity=".1"/>
  <!-- kuş -->
  <g transform="translate(178,126) rotate(-8)">
    <circle r="22" fill="#E0A63F"/>
    <ellipse cx="-6" cy="6" rx="13" ry="8.5" fill="#B9822B"/>
    <circle cx="9" cy="-7" r="6.4" fill="#EDEEF3"/>
    <circle cx="11.4" cy="-7" r="3" fill="#14172A"/>
    <path d="M17 1 L31 6 L15.5 11 Z" fill="#F0546C"/>
  </g>
</svg>
