<svg xmlns="http://www.w3.org/2000/svg" viewBox="0 0 400 260">
  <defs>
    <linearGradient id="bg" x1="0" y1="0" x2="1" y2="1">
      <stop offset="0" stop-color="#171A2E"/>
      <stop offset="1" stop-color="#101221"/>
    </linearGradient>
    <linearGradient id="tile" x1="0" y1="0" x2="0" y2="1">
      <stop offset="0" stop-color="#4A56E2"/>
      <stop offset="1" stop-color="#3D48C4"/>
    </linearGradient>
    <linearGradient id="odd" x1="0" y1="0" x2="0" y2="1">
      <stop offset="0" stop-color="#7B85F7"/>
      <stop offset="1" stop-color="#6570EE"/>
    </linearGradient>
  </defs>
  <rect width="400" height="260" fill="url(#bg)"/>
  <g transform="translate(104,34)">
    <rect x="0"   y="0"   width="58" height="58" rx="13" fill="url(#tile)"/>
    <rect x="67"  y="0"   width="58" height="58" rx="13" fill="url(#tile)"/>
    <rect x="134" y="0"   width="58" height="58" rx="13" fill="url(#tile)"/>
    <rect x="0"   y="67"  width="58" height="58" rx="13" fill="url(#tile)"/>
    <rect x="67"  y="67"  width="58" height="58" rx="13" fill="url(#odd)"/>
    <rect x="134" y="67"  width="58" height="58" rx="13" fill="url(#tile)"/>
    <rect x="0"   y="134" width="58" height="58" rx="13" fill="url(#tile)"/>
    <rect x="67"  y="134" width="58" height="58" rx="13" fill="url(#tile)"/>
    <rect x="134" y="134" width="58" height="58" rx="13" fill="url(#tile)"/>
    <circle cx="96" cy="96" r="44" fill="none" stroke="#EDEEF3" stroke-width="3" opacity=".85"/>
    <circle cx="96" cy="96" r="56" fill="none" stroke="#EDEEF3" stroke-width="1.5" opacity=".3"/>
  </g>
</svg>
